#!OML:ASF H:\ManfredETheater\Project 1\Capture day 1\Session 1\subject.ASF
:FULLY-SPECIFIED
:DEGREES
170
root -1.13253 8.24337 -20.1428 135.466 -32.2324 -108.246
lowerback 51.8067 -0.0971667 4.47967
upperback 8.71202 0.105625 7.75708
thorax -11.1532 -1.71094 6.75012
lowerneck -8.48859 -10.0947 -7.37235
upperneck 0.58727 -17.01 32.1116
head 5.45748 -8.73232 9.88248
rclavicle 1.20861e-013 1.90833e-014
rhumerus 7.89926 -19.7731 -43.265
rradius 76.9287
rwrist -13.675
rhand -29.7296 -14.4581
rfingers 7.12502
rthumb -3.05631 -44.4159
lclavicle 1.20861e-013 1.90833e-014
lhumerus -26.9862 -4.27769 59.6231
lradius 78.7049
lwrist -48.4992
lhand -51.1393 5.49478
lfingers 7.12502
lthumb -23.6822 34.0559
rfemur -96.8197 -27.2689 34.125
rtibia 73.8388
rfoot 20.8008 0.838189
rtoes -27.6067
lfemur -68.784 38.4553 -9.76973
ltibia 137.532
lfoot 36.5092 -28.7598
ltoes 18.6598
171
root -1.11619 8.45729 -20.4562 136.095 -34.2206 -109.036
lowerback 51.8786 0.0222545 3.80475
upperback 8.84046 -0.111661 7.47198
thorax -11.013 -1.76292 6.83184
lowerneck -8.19866 -10.1741 -7.53784
upperneck -0.0363194 -16.9544 32.4551
head 5.26857 -8.78583 10.057
rclavicle -6.36111e-014 -2.22639e-014
rhumerus 6.69818 -19.1723 -43.6619
rradius 77.7047
rwrist -12.7453
rhand -29.7168 -14.073
rfingers 7.12502
rthumb -3.04398 -44.031
lclavicle -6.36111e-014 -2.22639e-014
lhumerus -26.1464 -4.23404 58.5364
lradius 76.5891
lwrist -47.2206
lhand -52.5507 4.24027
lfingers 7.12502
lthumb -25.0353 32.6196
rfemur -99.2798 -27.1764 35.6741
rtibia 75.6185
rfoot 20.4928 1.03923
rtoes -28.5121
lfemur -67.7751 39.1388 -8.62287
ltibia 137.29
lfoot 36.5114 -29.9103
ltoes 16.6662
172
root -1.10243 8.65848 -20.7706 136.765 -36.1734 -109.968
lowerback 51.9005 0.147513 3.13697
upperback 8.96575 -0.319693 7.19523
thorax -10.8672 -1.81289 6.91441
lowerneck -7.87273 -10.2794 -7.73332
upperneck -0.595234 -16.9235 32.7147
head 5.09001 -8.84157 10.2066
rclavicle -7.63333e-014 -5.725e-014
rhumerus 5.45255 -18.5665 -43.9412
rradius 78.4007
rwrist -11.7962
rhand -29.6772 -13.6151
rfingers 7.12502
rthumb -3.0057 -43.5737
lclavicle -7.63333e-014 -5.725e-014
lhumerus -25.0988 -4.29166 57.5932
lradius 74.0878
lwrist -46.0455
lhand -53.8696 3.19233
lfingers 7.12502
lthumb -26.2985 31.3894
rfemur -101.603 -26.9871 37.1084
rtibia 77.5039
rfoot 20.2059 1.39606
rtoes -29.5196
lfemur -66.5505 39.6365 -7.4797
ltibia 136.902
lfoot 36.7096 -31.2459
ltoes 15.782
173
root -1.09236 8.847 -21.0833 137.529 -38.0763 -111.067
lowerback 51.8339 0.277484 2.47359
upperback 9.08339 -0.517825 6.92122
thorax -10.7164 -1.85801 6.99131
lowerneck -7.53607 -10.4053 -7.96161
upperneck -1.06656 -16.9231 32.9054
head 4.93661 -8.89814 10.3343
rclavicle 1.81292e-013 2.25819e-013
rhumerus 4.1797 -17.9725 -44.1157
rradius 79.007
rwrist -10.8696
rhand -29.5695 -13.1089
rfingers 7.12502
rthumb -2.90172 -43.0689
lclavicle 1.81292e-013 2.25819e-013
lhumerus -23.8497 -4.47668 56.8141
lradius 71.2012
lwrist -44.887
lhand -55.0345 2.30737
lfingers 7.12502
lthumb -27.4132 30.3331
rfemur -103.792 -26.6954 38.4387
rtibia 79.448
rfoot 20.0116 1.88616
rtoes -30.3323
lfemur -65.1442 39.9251 -6.40268
ltibia 136.358
lfoot 37.0806 -32.6258
ltoes 15.8846
174
root -1.08667 9.02374 -21.3922 138.391 -39.9024 -112.301
lowerback 51.6626 0.3947 1.85201
upperback 9.19228 -0.704948 6.65603
thorax -10.5594 -1.89844 7.05129
lowerneck -7.23796 -10.55 -8.22866
upperneck -1.42606 -16.9629 33.0393
head 4.82878 -8.95412 10.4405
rclavicle -1.08139e-013 -6.67916e-014
rhumerus 2.90691 -17.4111 -44.2013
rradius 79.5205
rwrist -10.0023
rhand -29.3838 -12.5846
rfingers 7.12502
rthumb -2.72238 -42.5469
lclavicle -1.08139e-013 -6.67916e-014
lhumerus -22.4307 -4.80541 56.2211
lradius 67.9754
lwrist -43.653
lhand -55.9828 1.64285
lfingers 7.12502
lthumb -28.3198 29.5215
rfemur -105.84 -26.3137 39.7234
rtibia 81.4109
rfoot 19.9432 2.60703
rtoes -31.007
lfemur -63.5979 40.002 -5.39566
ltibia 135.658
lfoot 37.5645 -33.9492
ltoes 15.9855
175
root -1.08583 9.18982 -21.6946 139.355 -41.6962 -113.664
lowerback 51.3942 0.47541 1.27939
upperback 9.28344 -0.900032 6.3953
thorax -10.4053 -1.94065 7.09551
lowerneck -6.97507 -10.7096 -8.51904
upperneck -1.69535 -17.0373 33.1255
head 4.75798 -9.01034 10.5262
rclavicle -1.33583e-013 -1.43125e-013
rhumerus 1.64631 -16.9055 -44.204
rradius 79.9346
rwrist -9.22198
rhand -29.1421 -12.0728
rfingers 7.12502
rthumb -2.48899 -42.038
lclavicle -1.33583e-013 -1.43125e-013
lhumerus -20.8802 -5.30442 55.8262
lradius 64.4832
lwrist -42.2745
lhand -56.677 1.0748
lfingers 7.12502
lthumb -28.9831 28.8415
rfemur -107.754 -25.9001 40.9477
rtibia 83.371
rfoot 20.0043 3.47738
rtoes -31.354
lfemur -61.9657 39.7587 -4.57385
ltibia 134.796
lfoot 38.0576 -35.0739
ltoes 15.9306
176
root -1.08981 9.34709 -21.99 140.39 -43.4308 -115.116
lowerback 51.0546 0.506395 0.793429
upperback 9.35226 -1.09948 6.14103
thorax -10.2627 -1.98439 7.10826
lowerneck -6.75503 -10.8778 -8.82615
upperneck -1.88637 -17.1401 33.1788
head 4.72203 -9.0659 10.5958
rclavicle 1.08139e-013 1.33583e-013
rhumerus 0.412241 -16.4683 -44.1419
rradius 80.2482
rwrist -8.56735
rhand -28.8889 -11.6097
rfingers 7.12502
rthumb -2.24443 -41.5776
lclavicle 1.08139e-013 1.33583e-013
lhumerus -19.2707 -5.97285 55.6235
lradius 60.8421
lwrist -40.7525
lhand -57.0876 0.693748
lfingers 7.12502
lthumb -29.3751 28.3924
rfemur -109.503 -25.4622 42.1503
rtibia 85.3096
rfoot 20.1267 4.38511
rtoes -31.3637
lfemur -60.2664 39.2403 -3.89804
ltibia 133.78
lfoot 38.565 -36.0166
ltoes 15.7801
177
root -1.09876 9.49685 -22.279 141.487 -45.1204 -116.656
lowerback 50.6475 0.489045 0.376851
upperback 9.40132 -1.31066 5.89069
thorax -10.129 -2.03238 7.09792
lowerneck -6.55042 -11.0436 -9.13356
upperneck -2.02461 -17.2526 33.2039
head 4.70324 -9.11786 10.6528
rclavicle -9.54166e-015 4.77083e-014
rhumerus -0.78416 -16.0929 -44.0302
rradius 80.4629
rwrist -8.06258
rhand -28.6815 -11.2479
rfingers 7.12502
rthumb -2.0441 -41.2179
lclavicle -9.54166e-015 4.77083e-014
lhumerus -17.6843 -6.77462 55.599
lradius 57.1723
lwrist -39.155
lhand -57.1622 0.667059
lfingers 7.12502
lthumb -29.4463 28.3532
rfemur -111.073 -25.0221 43.3153
rtibia 87.2161
rfoot 20.2158 5.21069
rtoes -31.1881
lfemur -58.5165 38.4524 -3.3927
ltibia 132.617
lfoot 39.1257 -36.8352
ltoes 15.8141
178
root -1.11217 9.64039 -22.5626 142.606 -46.7659 -118.266
lowerback 50.2197 0.417081 0.0317965
upperback 9.42859 -1.54283 5.64426
thorax -10.012 -2.09014 7.06896
lowerneck -6.36037 -11.1993 -9.43145
upperneck -2.11811 -17.3626 33.1946
head 4.6944 -9.16171 10.6951
rclavicle -6.36111e-015 6.36111e-015
rhumerus -1.91555 -15.7664 -43.8938
rradius 80.5788
rwrist -7.72476
rhand -28.5596 -11.0125
rfingers 7.12502
rthumb -1.92641 -40.9836
lclavicle -6.36111e-015 6.36111e-015
lhumerus -16.1981 -7.62893 55.7369
lradius 53.586
lwrist -37.5765
lhand -56.8896 1.01326
lfingers 7.12502
lthumb -29.186 28.7449
rfemur -112.427 -24.6063 44.4388
rtibia 89.0739
rfoot 20.1726 5.85715
rtoes -31.0345
lfemur -56.705 37.4287 -3.02077
ltibia 131.327
lfoot 39.8249 -37.6153
ltoes 16.3128
179
root -1.12918 9.77782 -22.8423 143.754 -48.3043 -119.913
lowerback 49.7464 0.305878 -0.228212
upperback 9.43268 -1.77077 5.40939
thorax -9.91309 -2.14621 7.01151
lowerneck -6.17585 -11.3429 -9.6964
upperneck -2.17335 -17.464 33.1311
head 4.68534 -9.19595 10.7132
rclavicle -2.22639e-014 2.22639e-014
rhumerus -2.97456 -15.4744 -43.7438
rradius 80.6024
rwrist -7.56466
rhand -28.5482 -10.913
rfingers 7.12502
rthumb -1.91535 -40.8842
lclavicle -2.22639e-014 2.22639e-014
lhumerus -14.8705 -8.44452 56.0243
lradius 50.1632
lwrist -36.1343
lhand -56.282 1.64832
lfingers 7.12502
lthumb -28.6057 29.4792
rfemur -113.547 -24.1528 45.557
rtibia 90.848
rfoot 19.9447 6.22903
rtoes -30.9964
lfemur -54.8855 36.3279 -2.68146
ltibia 129.954
lfoot 40.7977 -38.449
ltoes 17.4915
180
root -1.14999 9.9092 -23.1189 144.959 -49.7576 -121.633
lowerback 49.2161 0.144107 -0.437976
upperback 9.42744 -2.029 5.17913
thorax -9.81101 -2.2164 6.94781
lowerneck -6.01801 -11.4633 -9.9636
upperneck -2.18041 -17.5406 33.0126
head 4.68238 -9.20999 10.7143
rclavicle 5.08889e-014 6.67916e-014
rhumerus -3.88685 -15.1747 -43.6066
rradius 80.536
rwrist -7.57595
rhand -28.6514 -10.9643
rfingers 7.12502
rthumb -2.01508 -40.9345
lclavicle 5.08889e-014 6.67916e-014
lhumerus -13.7488 -9.05143 56.4562
lradius 46.948
lwrist -34.9334
lhand -55.2905 2.67763
lfingers 7.12502
lthumb -27.658 30.6643
rfemur -114.421 -23.6794 46.6168
rtibia 92.5025
rfoot 19.5552 6.33111
rtoes -31.1631
lfemur -53.0609 35.1659 -2.4051
ltibia 128.523
lfoot 42.0795 -39.3177
ltoes 19.3184
